<svg width="15" height="17" viewBox="0 0 15 17" fill="none" xmlns="http://www.w3.org/2000/svg">
<path id="copy" fill-rule="evenodd" clip-rule="evenodd" d="M8.77539 16.5137C9.45443 16.5137 9.96712 16.3382 10.3135 15.9873C10.6598 15.6364 10.833 15.1169 10.833 14.4287L10.833 13.233L11.9473 13.2324C12.6309 13.2324 13.1447 13.057 13.4888 12.7061C13.8328 12.3551 14.0049 11.8356 14.0049 11.1475V5.97266C14.0049 5.5625 13.957 5.21387 13.8613 4.92676C13.7656 4.63965 13.5902 4.36621 13.335 4.10645L10.0947 0.804688C9.85775 0.563151 9.5957 0.391113 9.30859 0.288574C9.02148 0.186035 8.69792 0.134766 8.33789 0.134766H5.88379C5.20475 0.134766 4.69206 0.310221 4.3457 0.661133C3.99935 1.01204 3.82617 1.53158 3.82617 2.21973L3.826 3.417L2.70508 3.41602C2.02604 3.41602 1.51335 3.59147 1.16699 3.94238C0.820638 4.29329 0.647461 4.81283 0.647461 5.50098V14.4287C0.647461 15.1169 0.820638 15.6364 1.16699 15.9873C1.51335 16.3382 2.02604 16.5137 2.70508 16.5137H8.77539ZM10.833 9.4248C10.833 8.99642 10.7943 8.66032 10.7168 8.4165C10.6393 8.17269 10.4661 7.91406 10.1973 7.64062L6.66992 4.05176C6.41471 3.79199 6.16292 3.62109 5.91455 3.53906C5.71585 3.47344 5.47559 3.43406 5.19377 3.42094L4.995 3.417L4.99512 2.28125C4.99512 1.9668 5.07601 1.72754 5.23779 1.56348C5.39958 1.39941 5.64225 1.31738 5.96582 1.31738H8.73438V4.49609C8.73438 4.88802 8.8335 5.18083 9.03174 5.37451C9.22998 5.5682 9.52051 5.66504 9.90332 5.66504H12.8291V11.0928C12.8291 11.4027 12.7482 11.6408 12.5864 11.8071C12.4246 11.9735 12.182 12.0566 11.8584 12.0566L10.833 12.057L10.833 9.4248ZM10.0605 4.66016H12.5283L9.74609 1.83691V4.33887C9.74609 4.55306 9.85091 4.66016 10.0605 4.66016ZM8.68652 15.3379H2.78711C2.4681 15.3379 2.2277 15.2547 2.06592 15.0884C1.90413 14.922 1.82324 14.6839 1.82324 14.374V5.54883C1.82324 5.24349 1.90527 5.00879 2.06934 4.84473C2.2334 4.68066 2.47493 4.59863 2.79395 4.59863H4.83789V8.21484C4.83789 8.66146 4.94727 8.99186 5.16602 9.20605C5.38477 9.42025 5.71061 9.52734 6.14355 9.52734H9.66406V14.374C9.66406 14.6839 9.58203 14.922 9.41797 15.0884C9.25391 15.2547 9.01009 15.3379 8.68652 15.3379ZM6.2666 8.47461H9.47266L5.89746 4.83789V8.09863C5.89746 8.23079 5.92708 8.3265 5.98633 8.38574C6.04557 8.44499 6.139 8.47461 6.2666 8.47461Z" fill="white"/>
</svg>
