<svg width="17" height="21" viewBox="0 0 17 21" fill="none" xmlns="http://www.w3.org/2000/svg">
<path id="waiting_w" fill-rule="evenodd" clip-rule="evenodd" d="M8.21289 20.0195C9.35221 20.0195 10.4183 19.8079 11.4111 19.3848C12.404 18.9616 13.278 18.3724 14.0332 17.6172C14.7884 16.862 15.3776 15.988 15.8008 14.9951C16.224 14.0023 16.4355 12.9362 16.4355 11.7969C16.4355 11.543 16.3542 11.3346 16.1914 11.1719C16.0286 11.0091 15.8203 10.9277 15.5664 10.9277C15.3255 10.9277 15.1302 11.0091 14.9805 11.1719C14.8307 11.3346 14.7559 11.543 14.7559 11.7969C14.7559 12.7018 14.5882 13.5514 14.2529 14.3457C13.9176 15.14 13.4489 15.8366 12.8467 16.4355C12.2445 17.0345 11.5495 17.5016 10.7617 17.8369C9.97396 18.1722 9.12435 18.3398 8.21289 18.3398C7.30794 18.3398 6.45996 18.1722 5.66895 17.8369C4.87793 17.5016 4.18294 17.0345 3.58398 16.4355C2.98503 15.8366 2.51953 15.14 2.1875 14.3457C1.85547 13.5514 1.68945 12.7018 1.68945 11.7969C1.68945 10.8854 1.85547 10.0326 2.1875 9.23828C2.51953 8.44401 2.9834 7.74902 3.5791 7.15332C4.1748 6.55762 4.86816 6.09049 5.65918 5.75195C6.4502 5.41341 7.29818 5.24414 8.20312 5.24414C8.73047 5.24414 9.21875 5.27832 9.66797 5.34668L9.93164 5.39219V5.39219L9.96639 5.40073L7.34375 8.00781C7.26562 8.09245 7.2054 8.18197 7.16309 8.27637C7.12077 8.37077 7.09961 8.47331 7.09961 8.58398C7.09961 8.81836 7.17936 9.0153 7.33887 9.1748C7.49837 9.33431 7.69206 9.41406 7.91992 9.41406C8.16732 9.41406 8.36263 9.33594 8.50586 9.17969L12.3047 5.36133C12.4805 5.17904 12.5684 4.9707 12.5684 4.73633C12.5684 4.49544 12.4805 4.28711 12.3047 4.11133L8.50586 0.263672C8.36263 0.0878906 8.16406 0 7.91016 0C7.6888 0 7.49837 0.0830078 7.33887 0.249023C7.17936 0.415039 7.09961 0.615234 7.09961 0.849609C7.09961 0.960286 7.12077 1.06608 7.16309 1.16699C7.2054 1.2679 7.26237 1.35742 7.33398 1.43555L9.65539 3.71773L9.57812 3.70312C9.11979 3.63021 8.66146 3.59375 8.20312 3.59375C7.0638 3.59375 5.99772 3.80371 5.00488 4.22363C4.01204 4.64355 3.14128 5.22949 2.39258 5.98145C1.64388 6.7334 1.05794 7.60579 0.634766 8.59863C0.211589 9.59147 0 10.6576 0 11.7969C0 12.9362 0.213216 14.0023 0.639648 14.9951C1.06608 15.988 1.65365 16.862 2.40234 17.6172C3.15104 18.3724 4.02181 18.9616 5.01465 19.3848C6.00749 19.8079 7.07357 20.0195 8.21289 20.0195Z" fill="white"/>
</svg>
